<?xml version="1.0" ?><!DOCTYPE svg  PUBLIC '-//W3C//DTD SVG 1.1//EN'  'http://www.w3.org/Graphics/SVG/1.1/DTD/svg11.dtd'><svg height="512px" id="Layer_1" style="enable-background:new 0 0 512 512;" version="1.1" viewBox="0 0 512 512" width="512px" xml:space="preserve" xmlns="http://www.w3.org/2000/svg" xmlns:xlink="http://www.w3.org/1999/xlink"><g><g><path d="M401.031,325.001c-29.5,29.5-102.641-0.828-173.906-72.093    c-71.273-71.266-101.602-144.422-72.102-173.922s102.633,0.828,173.898,72.094C400.203,222.361,430.547,295.501,401.031,325.001z     M317.203,403.985c-13.344-5.469-27.766,7.031-37.75,3.938c-16.641-5.172-20.109-7.453-33.766-12.422    c-13.969-5.109-21.391-1.219-27.109,4.5l-31.914,31.922c33.945,11.313,80.055,68.766,108.32,40.484l30.156-33.344    C336.453,427.751,344.391,415.11,317.203,403.985z M209.93,343.892c-12.094-1.781-29.898-10.297-46.531-26.922    c-18.359-18.359-25.531-36.703-27.047-47.219c16.203-24.921,21.664-47.843,24.438-68.968c-12.367-19-20.984-37.016-25.656-53.141    c-0.469,33.984,3.039,81.031-46.961,131.046l-30.758,30.75c-18.75,18.75-8.617,59.266,22.625,90.516s71.758,41.375,90.508,22.625    l30.727-30.703c0,0,0.008-0.016,0.016-0.016c49.211-49.219,95.047-47.641,128.523-47.672c-15.484-4.844-32.641-13.281-50.656-25    C258.078,321.97,235.047,327.517,209.93,343.892z M286.859,193.158c-21.555-21.578-41.625-12.422-48.984-6.078    c8.023,9.453,16.734,19.078,26.375,28.703c9.32,9.313,19.016,18.141,28.703,26.359    C299.297,234.767,308.414,214.689,286.859,193.158z M370.063,126.892c-4.75,4.203-11.969,3.984-16.453-0.5    s-4.703-11.703-0.5-16.453c0,0,37.625-42.25,37.797-42.422c2.156-2.156,5.047-3.422,8.125-3.516    c3.297-0.094,6.5,1.172,8.844,3.516l4.625,4.625c2.313,2.328,3.594,5.531,3.5,8.828c-0.094,3.078-1.375,5.984-3.5,8.141    C412.313,89.267,370.063,126.892,370.063,126.892z M290.453,69.548c-3.172,5.484-10.094,7.563-15.766,4.734    s-8.156-9.609-5.688-15.438c0,0,22.328-52,22.422-52.203c1.375-2.719,3.719-4.859,6.609-5.906c3.109-1.141,6.547-0.953,9.5,0.531    l5.828,2.922c6.063,3.031,8.281,10.281,5.391,16.094C318.641,20.501,290.453,69.548,290.453,69.548z M410.438,189.564    c-5.469,3.172-7.563,10.094-4.719,15.766s9.594,8.156,15.438,5.688c0,0,52-22.328,52.219-22.422    c2.719-1.375,4.844-3.719,5.875-6.609c1.156-3.109,0.969-6.547-0.531-9.5l-2.906-5.828c-3.031-6.078-10.281-8.281-16.094-5.391    C459.5,161.376,410.438,189.564,410.438,189.564z M186.359,110.33c-9.828,25.422,27.273,79.922,65.344,117.984    c33.703,33.718,90.719,75.89,118,65.359c9.828-25.422-27.297-79.937-65.375-118C270.641,141.97,213.641,99.798,186.359,110.33z" style="fill:#737373;"/></g><rect height="512" style="fill:none;" width="512" y="0.001"/></g></svg>