<?xml version="1.0" ?><!DOCTYPE svg  PUBLIC '-//W3C//DTD SVG 1.0//EN'  'http://www.w3.org/TR/2001/REC-SVG-20010904/DTD/svg10.dtd'><svg enable-background="new 0 0 64 64" height="64px" id="Layer_1" version="1.0" viewBox="0 0 64 64" width="64px" xml:space="preserve" xmlns="http://www.w3.org/2000/svg" xmlns:xlink="http://www.w3.org/1999/xlink"><g><path d="M32,0C18.746,0,8,10.746,8,24c0,9.68,5.744,17.992,14,21.781V60c0,2.211,1.789,4,4,4h12   c2.211,0,4-1.789,4-4V45.781C50.256,41.992,56,33.68,56,24C56,10.746,45.254,0,32,0z M38,58c0,1.105-0.895,2-2,2h-8   c-1.105,0-2-0.895-2-2v-2h12V58z M38,52H26v-4h12V52z M40,42.32c0,0-2,0.867-2,1.68h-4V30.828l5.414-5.414   c0.781-0.781,0.781-2.047,0-2.828c-0.783-0.781-2.047-0.781-2.828,0l-4.588,4.586l-4.584-4.586c-0.781-0.781-2.047-0.781-2.828,0   c-0.781,0.785-0.781,2.047,0,2.828L30,30.832V44h-4c0-0.812-2-1.68-2-1.68C16.941,39.23,12,32.199,12,24c0-11.043,8.955-20,20-20   s20,8.957,20,20C52,32.199,47.059,39.23,40,42.32z" fill="#394240"/><g><path d="M26,58c0,1.105,0.895,2,2,2h8c1.105,0,2-0.895,2-2v-2H26V58z" fill="#B4CCB9"/><rect fill="#B4CCB9" height="4" width="12" x="26" y="48"/></g><path d="M40,42.32c0,0-2,0.867-2,1.68h-4V30.828l5.414-5.414c0.781-0.781,0.781-2.047,0-2.828   c-0.783-0.781-2.047-0.781-2.828,0l-4.588,4.586l-4.584-4.586c-0.781-0.781-2.047-0.781-2.828,0c-0.781,0.785-0.781,2.047,0,2.828   L30,30.832V44h-4c0-0.812-2-1.68-2-1.68C16.941,39.23,12,32.199,12,24c0-11.043,8.955-20,20-20s20,8.957,20,20   C52,32.199,47.059,39.23,40,42.32z" fill="#F9EBB2"/></g></svg>