<?xml version="1.0" ?><!DOCTYPE svg  PUBLIC '-//W3C//DTD SVG 1.0//EN'  'http://www.w3.org/TR/2001/REC-SVG-20010904/DTD/svg10.dtd'><svg enable-background="new 0 0 64 64" height="64px" id="Layer_1" version="1.0" viewBox="0 0 64 64" width="64px" xml:space="preserve" xmlns="http://www.w3.org/2000/svg" xmlns:xlink="http://www.w3.org/1999/xlink"><g><g><path d="M8.006,24h-8v40h8c2.211,0,4-1.793,4-4V28C12.006,25.785,10.217,24,8.006,24z M8.006,58    c0,1.102-0.895,2-2,2h-2V28h2c1.105,0,2,0.891,2,2V58z" fill="#394240"/><path d="M63.896,28.438C64.475,25.5,62.537,24,60.006,24h-16V4c0-2.215-1.789-4-4-4h-6c-2.211,0-3.262,1.684-4,4    l-5.455,20h-0.545c-4.418,0-8,3.578-8,8v24h0.008h-0.008c0,4.418,3.582,8,8,8l0,0h27.5c2.5,0,3.812-1.41,4.5-4L63.896,28.438z     M49.631,60H24.006l0,0c-2.209,0-4-1.793-4-4V32c0-2.211,1.791-4,4-4h1.719c1.281,0,1.984-0.957,2.281-2l6-20    c0.314-1.078,1-2,2.406-2h1.594c1.105,0,2,0.891,2,2v20c0,1.102,0.895,2,2,2h16c1.469,0,1.812,0.902,1.5,2l-1.072,4h-2.428    c-1.105,0-2,0.891-2,2c0,1.102,0.895,2,2,2h1.357l-1.072,4h-2.285c-1.105,0-2,0.891-2,2c0,1.102,0.895,2,2,2h1.215l-1.072,4    h-2.143c-1.105,0-2,0.891-2,2c0,1.102,0.895,2,2,2h1.072l-1.072,4C51.635,59.156,50.736,60,49.631,60z" fill="#394240"/></g><path d="M49.631,60H24.006l0,0c-2.209,0-4-1.793-4-4V32c0-2.211,1.791-4,4-4h1.719c1.281,0,1.984-0.957,2.281-2   l6-20c0.314-1.078,1-2,2.406-2h1.594c1.105,0,2,0.891,2,2v20c0,1.102,0.895,2,2,2h16c1.469,0,1.812,0.902,1.5,2l-1.072,4h-2.428   c-1.105,0-2,0.891-2,2c0,1.102,0.895,2,2,2h1.357l-1.072,4h-2.285c-1.105,0-2,0.891-2,2c0,1.102,0.895,2,2,2h1.215l-1.072,4h-2.143   c-1.105,0-2,0.891-2,2c0,1.102,0.895,2,2,2h1.072l-1.072,4C51.635,59.156,50.736,60,49.631,60z" fill="#F9EBB2"/><path d="M8.006,58c0,1.102-0.895,2-2,2h-2V28h2c1.105,0,2,0.891,2,2V58z" fill="#45AAB8"/></g></svg>